<svg width="1200" height="280" viewBox="0 0 1200 280" fill="none" xmlns="http://www.w3.org/2000/svg">
  <defs>
    <linearGradient id="bg" x1="120" y1="20" x2="1060" y2="260" gradientUnits="userSpaceOnUse">
      <stop stop-color="#FBFBF7"/>
      <stop offset="1" stop-color="#EEF1F4"/>
    </linearGradient>
    <radialGradient id="glowA" cx="0" cy="0" r="1" gradientUnits="userSpaceOnUse" gradientTransform="translate(260 66) rotate(35) scale(260 150)">
      <stop stop-color="#2347D3" stop-opacity="0.16"/>
      <stop offset="1" stop-color="#2347D3" stop-opacity="0"/>
    </radialGradient>
    <radialGradient id="glowB" cx="0" cy="0" r="1" gradientUnits="userSpaceOnUse" gradientTransform="translate(960 210) rotate(25) scale(290 180)">
      <stop stop-color="#6F7783" stop-opacity="0.2"/>
      <stop offset="1" stop-color="#6F7783" stop-opacity="0"/>
    </radialGradient>
  </defs>

  <rect x="10" y="10" width="1180" height="260" rx="28" fill="url(#bg)"/>
  <rect x="10.5" y="10.5" width="1179" height="259" rx="27.5" stroke="#DDE2E8"/>
  <rect x="42" y="40" width="1116" height="200" rx="22" fill="#FFFFFF" fill-opacity="0.62"/>
  <path d="M42 76H1158" stroke="#E5E9EF"/>
  <path d="M100 40V240M258 40V240M416 40V240M574 40V240M732 40V240M890 40V240M1048 40V240" stroke="#F1F3F7"/>
  <rect x="42" y="40" width="1116" height="200" rx="22" fill="url(#glowA)"/>
  <rect x="42" y="40" width="1116" height="200" rx="22" fill="url(#glowB)"/>

  <text x="92" y="128" fill="#1E2128" font-family="'Iowan Old Style', 'Palatino Linotype', Georgia, serif" font-size="68" font-weight="600" letter-spacing="2">OpenManager</text>
  <text x="96" y="164" fill="#2347D3" font-family="'Avenir Next', 'Segoe UI', Arial, sans-serif" font-size="16" font-weight="700" letter-spacing="7.5">TAILORED WORKSPACE</text>
  <text x="96" y="204" fill="#4C5360" font-family="'Avenir Next', 'Segoe UI', Arial, sans-serif" font-size="24" font-weight="500">A local-first project workspace for OpenClaw</text>

  <g transform="translate(870 84)">
    <rect width="210" height="112" rx="20" fill="#1E2128"/>
    <text x="26" y="42" fill="#F8FAFC" font-family="'Avenir Next', 'Segoe UI', Arial, sans-serif" font-size="16" font-weight="600">Multi-project</text>
    <text x="26" y="74" fill="#D7DCE4" font-family="'Avenir Next', 'Segoe UI', Arial, sans-serif" font-size="14">memory, tasks, uploads,</text>
    <text x="26" y="96" fill="#D7DCE4" font-family="'Avenir Next', 'Segoe UI', Arial, sans-serif" font-size="14">agents, and sessions</text>
  </g>

  <g transform="translate(742 142)">
    <rect width="116" height="74" rx="18" fill="#2347D3"/>
    <text x="24" y="31" fill="#FFFFFF" font-family="'Avenir Next', 'Segoe UI', Arial, sans-serif" font-size="12" font-weight="700">OPENCLAW</text>
    <text x="24" y="54" fill="#E5EBFF" font-family="'Avenir Next', 'Segoe UI', Arial, sans-serif" font-size="13">ready</text>
  </g>
</svg>
